<svg xmlns="http://www.w3.org/2000/svg" version="1.0" viewBox="0 0 2083 2083">
  <path fill="#616161" d="m816 1-2 1c-2-1-20 6-20 8h-2l-1 1-1 2h-1l-1 1-5 4-2 2-2 3-2 2-2 2-6 7-5 7c-4 4-5 6-9 13-2 4-3 6-4 5h-1c1 1 0 3-2 5l-2 4-2 4-1 3-1 1v2l-2 2-1 3-1 2-2 2v3l-2 3-1 2v2l-1 1-2 2-1 3-1 2v1l-2 2v3l-1 1-1 1v3l-1 1v1l-1 1-1 1c1 2 0 5-1 5l-1 1-2 7-1 4-1 1-1 3-2 3v1l-1 4-2 7-1 3-5 13-2 5v3l-1 3-1 4c-3 6-4 12-4 13l-1 2-1 3v2l-1 2-1 3-1 5-2 8-2 8v3l-1 1v4l-1 2c-1-1-1 0-1 1v7l-2 6v2l-1 7-1 4-1 3-2 15c-1 1-1 1 0 0l1 2-1 7-3 21v11a207 207 0 0 1-2 31v15l-1 3v2a136 136 0 0 1 0 33v19l1 2v2l-1 15v20c-1 1-1 1 0 0l1 1c-2 2-2 6-1 7v2l1 2h-1l-1 5 1 6 1 2-1 9-1 6v7l-1 4-2 7c-2 2-3 3-6 3l-6-1-5-1c-4 0-9-2-7-3l-1-1h-2l-1-1h-1l-1-1a67 67 0 0 1-19-5l-7-2-6-1-2-1h-2l-2-1h-1l-2-1h-6l-1-2h-4l-5-1c-2-2-9-3-9-2h-1c-1-1-2-2-3-1l-1-1-1-1a263 263 0 0 0-9-1l-2-1-3-1-2-1h-3l-2-1h-4l-4-1-5-1-3-1c-1-1-1-1 0 0h-3l-2-1h-2l-4-1-4-1-3-1h-4l-3-1-2-1-8-1h-7l-1-1-2-1h-14l-2-1h-7l-6-1h-2c-1 1-1 1 0 0h-18a49 49 0 0 1-15-1h-63c-1-1-1-1 0 0h-4a119 119 0 0 0-30 0h-57l-5 1h-21l-9 1-9 1-3-1h-1c1 1 0 1-8 1l-2 1h-2c-2 0-2 0-1 1l-2 1c-4 0-8 0-7 1h-1l-3 1-3 1-2 1-3 1-1 1-1 1c-2-1-12 7-14 11l-3 4a85 85 0 0 0-10 18v2l-1 3-2 5v2a141 141 0 0 0 1 34l1 7v5l1 2 1 5v5l1 3v3l1 2 1 5 1 5v2l1 7 1 1 1 1 1 4 1 4 3 8v2l1 1v3l2 4 1 4 2 3v3l4 10v1c-1 0-1 1 1 3v2l1 2 2 1v2l1 4 1 1 1 1 1 3 1 3 1 2 1 1v1l1 1 6 14v1c-1 1-1 1 1 1v2l2 3 4 9a144 144 0 0 1 9 21l2 4 3 3 1 2c0 2 1 2 2 2v1l2 4 4 4 5 6 4 5 3 3 3 4 1 1 1 2 5 7 1 1 1 2 1 3 1 2v5l-2 4-1 1-1 1-7 7-4 4-5 3-1 1-1 1-3 1-3 3-3 2-1 1h-2l-1 1-2 1-2 1-1 1-1 1c-1-1-8 3-9 5l-2 1-5 3-1 1c-1-1-2 0-3 1l-3 1-5 3-1 1h-2l-3 2-3 1-4 2-5 4h-1l-6 3-3 1-2 1-9 4-1 1-9 6-9 5-1 1h-1l-1 1-4 2c-3 3-12 8-12 7l-2 2-3 1-2 1c0 1-1 2-3 2l-3 2-1 2-4 2-3 2c-2 0-6 3-6 4l-1 1-2 1-5 4-5 3-3 3-2 1-2 2c-2 0-3 2-3 2l-1 1c0-1-6 4-5 5v1c-1-1-2 0-3 1l-2 1h-1c0 2-3 5-5 5l-5 6-1 1-2 1-5 6-4 5-2 2-5 7-3 4-1 3-2 3-2 3-2 6-1 3v4l-1 7 1 5v2l1 3v3l1 3 1 4 2 2 5 12 1 3 2 2v2l2 2 3 5 3 3 2 3 7 9 4 6 1 1h1l2 2 1 2v1l4 4a178 178 0 0 0 22 21l3 3 5 4 7 7 8 7 12 9 1 1 6 4 3 2 1 1 3 2 3 3c1 1 3 3 4 2l2 2 2 2 4 2 3 2 2 2 4 3 5 3c1 1 2 2 3 1l2 2 1 2 3 1c1 2 3 2 3 2l2 1c2 1 3 1 2 2l1 1 3 1 4 2v1l1 1h2c0 1 11 8 17 10l4 3 4 2 3 3 1 1c1-1 2 0 4 1l4 2 1 1 1 1h1l2 1 3 2 2 1 4 2 5 2 1 1 2 1 3 2 3 1 1 1 2 1 6 3a47 47 0 0 0 6 2h1l1 2v1c1-1 12 4 13 5h2l1 1c-1 1 0 1 1 1l4 2h2l1 1 1 1 8 3 2 1 3 2 3 1h1l3 1c1-1 2-1 1 1l1 1h2l5 2 3 1 6 2 2 1c-1 1 0 1 2 1l1 1 1 1h2l4 2h3l1 1 1 1 5 2 3 1h2l12 6 5 2 3 2 5 1 4 1 3 3 2 1c1-1 2 0 4 1l3 1 2 1 2 2 1 3 2 1v3c1 0 1 4-1 10l-2 6-2 4-4 8-1 1-1 2-2 3-3 4-2 3-2 3-3 6-3 4-2 3-2 3-1 1-1 1-2 3-4 7-4 6-2 4-4 5-1 3-1 1-5 9-1 1-5 10-1 1-2 1v3l-4 5-2 4-2 5-1 1-3 7-1 1-3 5-2 4c-1-1-2 1-3 4l-1 4-2 5-2 3c-1 1-2 2-1 3l-3 4-1 1c0 3-3 10-4 9l-1 1-1 5-1 4-1 2c-1 1-2 2-1 3l-1 1c-1-1-1-1-1 1v2l-1 2-1 2-1 1-2 7a50 50 0 0 0-4 9l-1 3-1 4-1 3-2 3-1 2-1 4-1 4-1 3-1 3-1 1-1 1v4l-1 3-1 3-2 7-2 3-1 5-2 6-2 5-2 7v1l-1 2-1 5-2 7-1 5-1 1-1 3v1l-1 2v1l-1 3-1 7-1 5-1 3v2l-1 1v2l-1 2c-1-1-1 0-1 2v4l-1 6-1 5-1 1v2l-1 11-2 9-1 5v15l-1 7v2l1 2v1c-1-1-1 0-1 2 0 1 0 2 1 1v2c-1 2 0 8 1 7v1l-1 2 1 5 2 7v4l1 1 1 2 1 1c1 0 3 7 2 8l1 1c1-1 3 2 3 4l1 1h1l8 10c1-1 2 0 3 1 2 3 8 7 8 5l1 1 2 1h2l2 1 2 1h1l3 1 5 1 3 1h6l5 1 25 3h21l1 1v-1h1a200 200 0 0 0 39 0h17l9-1h3l2-1h4l4-1h15l4-1 4-1h3l3-1h8l7-1 2-1h2l3-1h4c1-1 3-2 7-2l4-1 2-1 2-1h1l6-1 5-1 4-1h1v-1c0-1 0-2 2-2h4l5-2 5-1h3l5-1h2l5 1 5 1 1 1c1-1 6 2 7 5l1 6c0 3 0 4 1 3l1 7 1 9v6l1 7v3l1 5v5l1 20 2 12v10l1 6 1 4v6l1 4 2 12-1 1v1l1 3v3l1 4 1 10 2 9 2 9 1 6v3l1 2v1l1 3 1 5 1 5 3 12v1l1 2 1 3c-1 2 0 6 2 7v2l1 1v3l1 3 1 3 2 5 1 4 2 4 1 2v1c1 0 3 7 3 11l1 1 3 3v1c-2 0 1 5 4 7l1 2v1l1 2 1 1 1 1 1 2 1 2 2 3c2 0 3 2 4 3 0 2 6 6 6 4l1 1 3 1c1 0 2 0 1 1l1 1h2l3 1h2l1 1h2l1 1 11 1h31l3 1 2-1 2-1 2 1h2l4-1h6l4-1h4l2-1v-1h4l3-1 3-1 7-2 1-1h2l1-1 2-1 2-1 3-1 2-1 7-3 1-1 7-3 1-1 1-2 4-1c1-1 2-2 3-1h1c-1-1 5-7 7-7l1-1 1-1c2 1 5-2 4-3l2-1 2-1 2-2 3-1 3-3 1-2 3-2h1l1-1 3-2 11-10 1-1 2-2 5-4 2-2 2-2c3-3 8-8 10-8l2-2 1-2 2-1 3-3 3-3 3-2 3-3v-1l2-1 2-2c-1 0 9-10 10-9l1-1v-1l1-1 1-1 2-1a208 208 0 0 1 24-25l1-1 2-1 2-2v-1l2-2 2-1 7-8 7-8 1-1 5-4 7-8 4-4 5-5 1-1 3-4 2-2 1-2 3-2 1-2v-1c0 1 5-3 5-5l1-1 1-1 1-2 2-2 2-1 1-1c-1-1 0-2 1-2v-1l1-1 2-1 1-3 5-6 4-4 1-2 2-2v-1l2-2 1-1 3-4 4-6 2-2 2-3 5-7 2-5 1-1c1 0 2 0 2-2l1-2 1-1 1-2 1-2 1-2 3-3 3-5 3-4 3-7c3 0 2-2 0-1l1-2 3-3h1v-4 1l1 1 1-3 2-3 2-4 3-4 2-3 1-1 1-2 1-2c1 0 1-1 0 0v-1l1-1 2-2 1-2 1-1 1-2 3-5 1-1 2-1v-1c2-2 4-2 4-1l3 5 4 6 1 1c1-1 1 0 2 2l2 2 1 1 3 5 3 4 2 2 2 2 2 4 3 3 1 3c2 1 3 3 2 3l2 3c2 0 3 2 4 4l2 3 1 1 2 4 4 5 1 1 2 4 6 7 4 5 2 2 1 2 2 2 1 1 2 3 1 1 1 1c-1 0 1 3 3 3l2 3 2 2 1 1c0 1 1 3 7 9 2 2 4 4 3 5l1 1h2l2 2 1 2c-1 1-1 1 1 1h1v2l2 2c0-1 3 1 3 3l4 5 5 5 1 1 1 1 3 2 1 1 1 2 3 2 7 8 7 6 4 4 4 5 2 2 3 2 2 1 1 1 1 3h1l5 4 7 7 2 2 1 1 4 3 1 1 1-1 1 3 1 1 3 2 2 2 5 4 5 5 7 5 6 5a106 106 0 0 1 9 7l3 3 3 1 4 4 5 4 2 2 2 1 5 4 5 3 1 1 1 1h1l1 2c3 1 6 2 6 4l1 1 3 2h2c-1-1-1-1 0 0l3 2 2 2 2 1 1 1 1 1c1-1 2 0 2 1l1 1h2l2 2 1 1c0 1 5 4 6 3l1 1 1 1 3 1 3 3c2 0 3 1 3 2l2 1 2 1 1 1 4 2 3 1 1 1h1l2 1 1 1h1l3 3 10 5 3 1 5 3 6 3c1-1 2 0 2 1l2 1 2 1h1c0-1 1-1 2 1l3 2 3 1 5 2 6 2 6 2 1 1 2 1c6 0 9 1 11 2l3 1h1l9 1 3 1h1l2 1h19l4-1c5-1 5-1 7-3l2-1 3-1 1-1 5-3 4-6 4-4 6-9c0-2 1-3 2-3v-1l2-2 1-2 2-6 3-7v-2c3-2 5-9 4-8l1-3 1-3 1-2 1-4v-3l2-1v-2l1-4 1-4 1-4 2-8 3-9 1-6v-3l2-4v-5l1-3c1-1 1-1 0 0v-1l1-6 2-7 1-5v-1h-1l1-2 1-3v-8l1-4 1-2v-5l1-7v-7h1v-3l1-3h-1l-1-1 1-1 1-6v-6l1-4 1-2-1-7v-7c2 0 2 0 1-1v-16l-1-5 1-4v-40l1-10v-2l1-2 1-3 3-3v-3c1 1 2 0 3-1h7l5 1 6 1 6 2h4l3 2 1 1 3 1h4l11 2 1 1 4 1h6l3 1 6 1h5l3 1h8l6 1h3l9 1 2-1 2 1 7 1 1-1 6 1 5 1 1 1 1-1h10l4 1h7l2-1 13 2a79 79 0 0 1 16 1h2v-1l1 1h16a268 268 0 0 0 27 1h2l12-1h19l4-1h3l8-1h3l5-1 3-2 2-1h1l1-1 1-1 3-1 4-2 2-2 1-1c1 1 11-8 11-11l3-4v-1l1-3 2-5 1-2 1-5v-7l1-9v-6l-1-1 1-1v-19c0-2 0-3-1-2v-8l-1-4c0-7-1-15-4-26v-5l-1-3-1-2c1-1 0-4-1-6v-6l-2-3-1-7-1-5-1-1v-2l-1-5-2-6v-2l-1-2-1-2-1-5-1-4-1-2v-2l-1-4-1-3-1-2v-1l-2-6a108 108 0 0 0-6-20l-1-5c0-2 0-2-1-1s-1 1-1-2l-2-4v-3l-2-3-1-4-1-1v-4l-1-2-2-2-3-9-4-9-1-4-1-2-3-7-3-8-1-2-1-1v-1l-1-2v-1c-1 1-2-2-1-3h-1l-1-2c1-1 0-2-1-2l-1-2-1-2-1-2-1-2-1-1c1-1-1-7-5-14l-4-8-3-5-1-1v-2l-2-2-2-4v-1l-1-3-2-4-1-1-6-10-3-3-2-3-3-4-2-5-1-2-4-6-3-4-1-1c1-1 0-3-1-3l-1-3-2-5-2-3-1-2-1-6-1-3-1-2c0-2 2-4 5-7a106 106 0 0 0 8-6l2-3c2-1 3-2 4-1l1-1 1-2c3 0 5-2 4-3h1l2-1h1l1-1 4-2 5-4c-1 0-1-1 0 0l2-1h2l1-1 2-2 8-4 7-4 2-1 5-3 6-4h2l1-2 3-1h1c-1-1 2-2 4-2l3-2 4-3 3-1 1-1 1-1h1l4-2 2-1 1-1 2-1c1-1 1-1 0 0l3-1 8-5 8-5 1-1h2l2-1 4-3 5-2 2-2h1l2-1 2-1 4-3 4-3 4-2 3-1 1-1 1-1 2-1 3-1 1-1v-1c1 0 2 0 1-1h1l2-1 3-2 4-2 8-5c1 0 3-2 2-3 0-1 3-2 4-1l2-2 3-2 4-2 4-2 2-1 4-2 1-1 3-3c2 0 4-2 3-2l2-2 2-2 2-1 3-1 2-2 6-5 6-5 2-2h2v-3c1 1 3-1 4-2l4-3 9-9 1-1c2 0 3 0 2-1l3-1 1-1 4-4a169 169 0 0 0 18-19h2l2-3 4-5 5-5 3-5 2-3 6-9 1-2 1-2 1-2 1-2 1-1v-3l1-2v-5l1-5v-5l-1-4-1-3-2-5v-4l-2-2c1-1 0-2-1-3l-2-3-9-13-2-2c1 0 0-2-2-3l-4-5c0-2-2-4-3-3v-2l-1-1c-1 1-2 0-3-1l-1-2-1-1v-1l-6-5-7-6-1-2-4-3-2-3-3-1-1-1-1-3h-2l-1-1-3-2-1-1-1-1-3-2-4-3-2-2-1-1-2-1-1-2-7-5-7-4-1-2-1-1h-1l-2-1-2-1c1-1 0-1-1-2l-7-5-1-1-4-2-2-2c0 1-6-3-7-5h-1l-8-5-4-2-2-2h-2l-1-2-1-1c-1 1-1 0-2-1l-1-1-8-4-11-7-3-2-2-1-3-2-3-2-4-2-4-2-1-1-6-3-1-1-2-1-1-1c1-1 0-1-1-1l-6-3-4-3-4-3-4-2-2-1-6-5-4-5-1-1v-3l2-6 3-5v-2l1-3v-2l1-1c2 1 2 1 2-1v-2l1-3 2-2 1-2 1-3 1-2 1-1 1-1v-2l1-3 2-2c2-2 2-3 2-5l1-2 2-3v-1c1 1 1 0 1-1l1-1h1c-1-1 2-6 3-6l1-1c-1-1 2-7 3-7l1-2 1-2v-1l1-2 2-3 1-1h1c0-2 7-18 9-19l1-2 2-3 1-3 2-4 2-3 1-1 1-3 1-2c1 1 1 0 1-1 0-2 5-12 8-15l1-2 6-13v-2l1-2 2-2 2-4 1-3 8-16 4-9 1-2 1-3 3-6 2-4v-2c1-1 2-2 1-3l1-2 2-2v-3l2-2v-1l1-3v-1l1-1 2-6 3-6v-1l1-3 1-2 1-4 2-5 1-5 1-2v-2l1-9 1-9v-2l-1-3v-5l-1-1c1-1 0-3-1-5s-2-4-1-5l-1-2-1-1v-1l-2-3-4-5-2-2-5-5v-1l-4-2-3-3-2-1-1-1-1-1h-2l-1-2-3-1c-1-2-3-3-5-3l-2-1-2-1-3-1-4-1-1-1-2-1-5-2-4-1-3-1-1-1h-2l-1-1h-1l-1-1h-4c-2-1-4-2-5-1l-1-1-1-1h-4l-2-1-3-1-5-1-5-1-3-1h-2l-2-1-10-1h-3l-2-1-2-1h-10l-2-1h-7l-10-2-17-2-3 1h-3l-11-1h-22c0 1-5 0-4-1h-7l-4 1h-6c-3 1-7 1-8-1-1-1-2-1-3 1h-18l-9 1h-5l-2 1-2-1h-2l-2 1h-9l-14 1-4 1h-9l-3 1h-1l-2 1-1-1h-2l-5 1-7 1h-3l-5 1-4 1-2-1h-1c-1 1-2 2-6 1l-4 1-4 1c-3-1-3-1-3 1 1 1 1 1 0 0-2-1-5 0-7 1h-4l-2 1h-5l-5 2h-3l-4 1-3 1-8 1h-2l-1 1-1 1-5 1-6 1c-1-1-3 0-5 1h-2l-1 1h-4l-1 1h-2l-2 1c0 1-4 2-6 1h-1v1l-4 1-13 4-4 1-3 1-1 1-2 1h-4l-2 1h-1l-2 1-3 1-4 2-5 1-3 1h-1l-2 1h-3l-2 1h-3l-1 1c1 1 1 1 0 0h-6l-6-2-3-1-1-1c1-1 0-1-1-1l-1-1v-4l-2-6a404 404 0 0 1 1-56 1194 1194 0 0 0 0-79c-1 1-1 0-1-4v-13l-1-7-1-13v-7l-1-7v-4l-1-5-1-6 1-1v-1l-1-5-1-6-1-8-1-13-1-4v-3l-1-1v-5l-1-6-2-3 1-1-1-4-1-4v-1l-1-5-1-4-1-2v-2l-1-3v-5l-3-8c0-5-1-6-2-6v-1c1-1 1-2-1-4l-1-3c0-4 0-5-1-4l-1-1c1-1 0-4-1-7l-4-12-1-4-1-2-1-5-1-5-1-2c-1-1-2-2-2-6l-2-4-1-4-2-5-1-2c1 1 1-1-1-3v-3l-2-5c0-1-2-5-3-4v-5l-2-3-1-3v-2l-2-3-1-3-1-3-1-1-2-5-2-6-2-2-3-8-1-1-2-2v-3l-2-3-1-3-1-2-1-2-3-5-3-4-1-1c0-2 0-3-1-2l-1-1v-2l-1-1-2-2-1-1c0-1-3-6-5-7l-1-2v-1l-2-1-2-3-2-3h-1l-1-1-3-3-2-4-2-2c-2 0-3-1-2-2l-1-1-6-4-8-5c-2 0-3-2-2-2l-1-1h-3l-4-1-1-1v-1l-2-1-12-1a125 125 0 0 0-17 1l-1 1h-2l-1 1-1 1-6 2-5 2-3 1-1 1c-1-1-2 0-2 1h-2l-2 1h-1l-1 1-11 7-5 3-7 4-2 2-3 3-6 3a132 132 0 0 1-10 8l-3 3-8 6-6 5-2 2-1 1-4 3-4 2-2 2c0 2-2 3-2 3l-5 4-5 4-1 2-1 1-5 4-4 3-1 1-2 2-1 1-4 4-6 6-2 2-4 3c-5 5-9 8-10 7l1 1-1 2c-2 0-7 6-7 7l-1 1-2 1-6 6c-2 1-4 3-3 4h-1l-3 2-8 8c-1-1-1 0-2 1l-1 2-5 4-5 4-1 1v1l-3 2-4 3-1 1-1 2-2 1-9 8-4 2v2c-1 0-7-7-6-8l-1-1-2-1-3-5-4-5-2-2-2-2c0-2-3-4-4-3v-1l-1-2-1-2-2-3-4-4a77 77 0 0 1-13-17l-3-4-4-3-1-1c0-2 0-3-2-3l-1-1-8-9-6-7-1-1-2-2c1-1 0-1-1-2l-2-2-1-1c-1 1-6-5-5-6l-1-1-1-1-2-1h-1l-4-5a72 72 0 0 0-14-14l-10-10-2-3-3-2-1-2-1-1-5-5-5-5-4-3-3-4-1-1-4-3-13-11-1-1-1-2c-1 0-3-1-7-6l-3-1-1-1-1-2h-1c1 1 1 1 0 0l-3-2-2-2c1-1 1-1-2-1l-2-3c-2-1-3-2-4-1v-2l-3-2-2-1-6-2-5-2-1-1-3-1-2-1-8-3-3-1-1-1-1 1h-2c-4-2-10-2-10-1h-4zm359 776 2 2 5 3 3 1v1l1 2c1-1 11 8 11 10l1 1 4 10v18l-1 1v1l-1 1c1 1 0 6-1 6-1-1-1 0-1 1l-1 6-2 4-1 3-1 1-1 4-3 5-2 5-2 4-1 2-2 4-2 3v2l-1 1h-1v3c-1 0-3 2-3 5l-2 4h-1c-1 1-2 3-1 4l-2 3-2 2v1l-1 3-1 3-2 3-1 1-1 2v2l-2 2-2 4-1 3-2 2-1 2c1 1 0 2-1 3s-1 1 0 0l-2 3-2 5-4 7v1l-1 2v3l-1 1-5 7-4 9-1 1v1l-1 2-1 1v2l-1 1-1 1-1 3-1 2-2 3v2l-1 2-2 2-2 3-1 3v2l-1 1-2 2-1 2c1 1 0 2-1 2l-1 2-4 8v1c2-1 1 1-4 6v2l-1 2v1c-1 1-3 3-3 5l-2 3-1 1v2l-3 5-2 3-1 1c1 1 0 2-1 3l-3 6-4 6v2l-1 1-1 1v1l-1 1c1 1-1 5-2 5l-1 2-2 2-1 2c1 1 0 3-1 4-2 1-3 3-2 4l-1 3-6 11-5 9-2 4-2 4-1 1-2 5-1 4-1 1-3 7-2 2-1 3-2 1-1 2v3l-2 3-3 6-1 2-1 1-1 1v3l-1 1-1 3-1 1-2 4-2 3-2 4-2 5-2 5-1 1-3 5-2 4v2l-1 2-4 6-2 5-1 2-1 2-1 3-2 3-1 1-1 1v1l-1 2-2 4c-1 1-2 3-1 4l-1 1-2 2-4 8-3 8-1 2-2 3-1 3-4 6-2 5-1 3v1l-2 3-3 4-1 1-4 8-1 3-1 2c-1 1-6 10-5 11l-1 1c-1-1-2 0-2 1l-2 6-3 5-2 4-2 3-2 4-5 5-3 6-4 6-2 3c-3 2-8 6-7 7l-2 1h-1c0 1-6 3-8 2v-1h-1c-2 0-7-1-9-4l-3-1-2-1-1-3-1 1-3-2-5-4-1-1c-1 1-9-8-9-9v-1l-1-3-1-3c-1 0-1-14 1-17v-3l1-3v-1l2-5 3-7 1-3 1-1 1-2c-1 0-1-1 5-12l3-7 1-2v-1l1-2 2-2 1-2v-1l1-1 1-4c0-2 0-2 1-1s1 1 1-1l1-1 1-3 2-4 1-3 3-4 1-3 1-1 1-2 2-4 2-6 2-4c1 0 2-1 1-2l1-1c1 1 1 0 1-1l2-3 1-4 2-3v-1l1-1 2-3 1-4 2-4 4-6 2-5 1-1 1-1c-1-1 1-5 2-5l1-3c0-1 0-2 1-1l1-2 3-6 3-7h1l1-1 2-6 3-7 4-6 2-5 1-2c1 0 3-5 2-6l1-1 1-1c1-2 1-3 2-2l1-1 1-2v-2l-1-1h2l1-2 1-4 8-15 2-3c2-1 3-4 3-6l3-4 1-2 1-3 2-3 1-3 2-3c0-2 2-6 3-5l1-1c-1-1 1-6 2-6l1-1c-1-1 2-6 5-12l2-3 1-3 1-2 2-3 1-4 1-1c1 0 4-6 3-7l1-1 1-1 1-3c1 0 2-1 1-2l1-3 2-3 2-3 2-3 2-6 2-6 1-1c1 1 2-2 2-3l1-3c3-3 5-8 5-10s0-2 1-1h1c0-3 4-12 5-12v-1l2-2v-3l1-1c1 1 7-12 7-15l1-1 1-1v-2c2 0 2-1 3-4l1-3 3-5 3-6 2-2v-3l1-3 2-3 2-4 1-1 1-2 2-4 1-1v-2l4-7 3-4h1v-3l1-3 2-3v-2l1-2 2-3 1-2 3-6 2-4c2-1 3-3 2-3l1-1v-2l1-2 3-3 3-6 1-3 1-1v-1l1-1 1-1 1-1v-2l1-1 1-1v-2l1-1 2-3 2-3 1-2 2-3 2-3 3-4c-1-1 11-12 15-14l3-2 2-1 2-1 8-4 1-1h6zM745 916l3 1 2 2 5 4 3 4 2 2 2 4 1 2 2 3v1l1 4-1 4-1 1h1c1 0 1 1-1 2v2l-6 11-1 1-3 7-1 2-7 10-1 1-4 4-3 5-1 1-3 4-2 1-9 8a169 169 0 0 1-35 27l-4 3c-2 2-4 2-5 2l-1 2-1 1-3 1-4 2c-2 0-8 3-9 5l-7 4c-6 4-10 8-9 10v3l1 1 1 1 1 1 2 2c-1 1 12 13 12 12l1 1 1 1 3 3c1 2 3 3 5 2v2l1 1c1-1 2 0 4 2l3 3 2 2 2 1 2 1 1 1 3 2h2l1 1 9 6 1 1 1 1 3 2 3 2h1l1 1 3 1c3 3 8 5 8 4l1 1c-1 1 1 2 3 2l5 2 6 3 5 1c6 2 17 0 17-4l2-3c2-1 2-1 5 2l2 3h-1l1 3 1 1c1-1 1 0 2 20l-1 12v4l-1 4-1 2-1 4v3l-2 5-3 8-2 4-2 3-2 2-1 1c1 1-4 7-6 7l-1 1c1 1 0 2-1 2h-5c-2 1-5 0-7-1l-6-1-17-7-8-4-1-1-3-2-4-2-1-1-4-2-3-2h-2l-2-2-3-1-6-4-5-3-2-1-2-2-1-1-5-2c-1-2-4-3-6-4l-5-3-6-5-6-4-2-1-3-2c0-1-1-2-2-1l-4-3c-1-2-4-3-6-4l-3-3c-1-1-1-2-2-1l-2-2-1-1-7-4-4-2c-1-1-2-1-1-2l-2-2c-2 0-7-4-11-8l-2-2-5-3-3-3-4-3-6-5-2-2-1-1-2-1-2-1-1-1v-1l-2-3-2-1-2-2-3-3-2-1-2-1-1-1v-2l-2-1-3-5-3-4-1-1-2-2-1-3c-2-3-2-11 0-13l3-5 2-3 1-1 3-4 1-2 1-2 2-1 2-2 4-4 2-4 1-1h1l3-2 2-3 5-5h1l1-1h1v-1l1-2c1 1 8-4 9-6l1-2c1 0 4-1 7-4l9-6 1-1 1-1 1-1 1-1h1l3-2 2-1 5-3 5-4 1-1 6-3 7-4 2-2 4-3 6-4 11-7 3-2 3-2 2-2 1-1 2-1h1l3-2 4-3 4-2 4-2c0-1 1-2 3-2 1-1 2-1 1-2l1-1h3l5-3 9-6 7-3 3-2h1l1-1v-1h3l1-1 3-2 4-1 5-2 2-2 3-1c1 1 3 0 4-1s2-1 3 1l2 1zm599 0c1 1 1 1 0 0l1-1 3 1v1h3l2 1c-1 2 0 2 2 1l4 2h2l2 1 1 1 3 2 3 1h1l5 3 5 3 1 1 3 2h2v-1l1 2 2 1c0-1 2 0 3 2l3 2 5 3 4 2v1l2 1h3l-1 1h-1l3 1h1c-1 1 4 4 6 4l1 1 2 1 2 2h1l4 3 4 3c0-1 2 0 3 2l3 2c2 0 3 0 3 2l2 2h2l1 1 2 1 3 2 2 2 5 2 2 2c0 1 3 3 4 2l1 1 1 1 14 8 6 4 5 2 5 2 2 2h1l1 1 1 1h2l6 4h3l4 2 6 2 4 2 3 1 4 1h19l2 1c2 1 5 7 5 9v5l-1 1 1 1c1 1 1 1-1 5l-1 3-1 2-1 1-1 3v3l-3 3v3l-1 2s-2 1-2 3l-1 3-2 2-4 6-3 5-2 3-1 1-3 4-5 6-3 4-1 1c-1-1-2 2-2 3l-1 1-3 2-3 3-2 2-3 4-5 4a235 235 0 0 1-30 25l-8 6-4 3-6 4c-1 2-4 3-5 3l-4 4-4 2s-3 1-2 2l-1 1c-1 0-5 2-6 4l-3 1-3 2-1 1-3 1-3 2-4 3-3 2h-1l-4 3-5 2-3 2c-2 0-4 2-5 3s-1 1 0 0l-1-1-1 2-1 1c-1-1-6 1-6 2l-1 1h-1l-2 1-6 2-11 3c-1 0-2 0-1 1h-3l-1 1h-1l-1 1-5 1h-9l-5 1-3 1h-5l-6-3c-4-1-14-10-12-10v-1c-2-1-5-6-5-8l-1-2v-5c0-6 2-13 4-13l1-1 1-1 1-2c0-1 12-13 15-14l3-4 4-2 2-3 1-1 4-2 4-3v-1l1-1c1 1 4-1 4-2l2-2 3-2 1-1 2-1 3-2 3-2 2-2 4-3 4-3 2-1c1-1 1-1 0 0 0 1 3-1 9-7l4-2 2-2 1-1 4-3 3-2 14-11 2-2 3-2c1-2 3-3 3-2l1-1 3-4c5-4 6-7 3-8l-2-3h-1v-1l-1-2-8-5-7-6-1-1-1-1-4-3-7-5-1-1-1-1-3-2-3-2-2-1-2-1-2-2c-1-1-1-2-2-1l-2-1-2-2-4-2-5-4-2-2-7-5-7-7h-2l-1-1c0-2-3-3-4-3v-1l-1-1-2-2-3-3-2-2-2-3-4-3-3-4-2-3-2-2-2-3-1-1-1-1-2-3-2-2-1-2v-3l-2-2-2-5-1-4v-15l4-8 1-1c0-2 3-5 5-5v-2h3c-1-2 0-3 3-2l1-1h15z"/>
</svg>
