<svg width="18" height="9" viewBox="0 0 18 9" fill="none" xmlns="http://www.w3.org/2000/svg">
    <path fill-rule="evenodd" clip-rule="evenodd"
        d="M-0.0018417 1.33824L0.837379 0.499023L1.35717 1.01871C1.35741 1.01862 1.35764 1.01853 1.35787 1.01845L3.411 3.07158H3.41049L4.83909 4.49987L3.41011 5.92872H3.41075L1.35769 7.98178C1.35749 7.98171 1.35729 7.98164 1.35709 7.98156L0.837023 8.50158L-0.00219727 7.66236L3.1547 4.49987L-0.0018417 1.33824ZM2.6821 8.07158H16.143C16.932 8.07158 17.5716 7.43201 17.5716 6.64301V2.35729C17.5716 1.56832 16.932 0.928721 16.143 0.928721H2.68236L4.82522 3.07158H15.4287V5.92872H4.82496L2.6821 8.07158ZM1.74238 4.50002L0.428719 5.81655V3.18349L1.74238 4.50002Z"
        fill="#757575" />
</svg>
