<svg width="16" height="16" viewBox="0 0 16 16" fill="none" xmlns="http://www.w3.org/2000/svg">
    <path fill-rule="evenodd" clip-rule="evenodd"
        d="M12 4.71429V7H1.71429V4.71429H12ZM12.5714 3C13.2026 3 13.7143 3.51168 13.7143 4.14286V7.57143C13.7143 8.20263 13.2026 8.71429 12.5714 8.71429H1.14286C0.51168 8.71429 0 8.20263 0 7.57143V4.14286C0 3.51168 0.511669 3 1.14286 3H12.5714Z"
        fill="#565656" />
    <path fill-rule="evenodd" clip-rule="evenodd"
        d="M14 8.71429V11H3.71429V8.71429H14ZM14.5714 7C15.2026 7 15.7143 7.51168 15.7143 8.14286V11.5714C15.7143 12.2026 15.2026 12.7143 14.5714 12.7143H3.14286C2.51168 12.7143 2 12.2026 2 11.5714V8.14286C2 7.51168 2.51167 7 3.14286 7H14.5714Z"
        fill="#565656" />
</svg>
